<?xml version="1.0" encoding="UTF-8"?>
<svg xmlns="http://www.w3.org/2000/svg" id="Art" version="1.1" viewBox="0 0 660.7 225.2">
  <defs>
    <style>
      .st0 {
        fill: #1a1a1a;
      }
    </style>
  </defs>
  <g>
    <g>
      <path class="st0" d="M279.6,97.6c0,0-.2,0-.2.1-.4.7-2.6,4.1-7.4,4.1s-5.5-4.1-5.5-4.2v-21c0-2.3,2.7-2.7,3.5-2.8s.2-.1.2-.2v-.3c0-.1-.1-.2-.2-.2h-12c-.1,0-.2.1-.2.2v.3c0,.1,0,.2.2.2.8,0,3.5.4,3.5,2.8v23.5c0,2.1-2,2.7-2.6,2.8s-.2.1-.2.2v.3c0,.1.1.2.2.2h21l.5-5.8c0-.1,0-.3-.2-.3h-.6Z"></path>
      <path class="st0" d="M336.8,98c-.1,0-.2,0-.2.2-.2.7-1.3,3.6-6,3.6s-3.8-.7-4.7-1.4-.9-1.1-.9-1.8v-10.2h4.6c2.8,0,3.2,2.3,3.2,3s.1.2.2.2h.7c.1,0,.2,0,.2-.2l1-6.1c0-.1,0-.3-.2-.3h-.2c-.2,0-.4,0-.5,0l-2.2.8c-.4.1-.8.2-1.2.2h-5.5v-11.2h5.2c3.6,0,4.1,2.4,4.1,3.1s.1.2.2.2h.6c.1,0,.2,0,.2-.2l1.2-5.2h-20.1c-.1,0-.2.1-.2.2v.3c0,.1,0,.2.2.2.8,0,3.5.4,3.5,2.8v23.5c0,2.1-2,2.7-2.6,2.8s-.2.1-.2.2v.3c0,.1.1.2.2.2h19.1l1-5.4c0-.1,0-.3-.2-.3h-.5Z"></path>
      <path class="st0" d="M128.4,88.2c0-9,8.3-16.4,18.6-16.4s18.6,7.3,18.6,16.4-8.3,16.4-18.6,16.4-18.6-7.3-18.6-16.4ZM146.9,102.4c7.5,0,13.7-6.4,13.7-14.3s-6.2-14.2-13.7-14.2-13.7,6.3-13.7,14.2,6.2,14.3,13.7,14.3Z"></path>
      <path class="st0" d="M522.8,103.3c0,0-.1-.2-.2-.1-2.5.2-4.6-1.2-5.5-1.8-1-.6-1.9-1.5-2.8-2.3-1.8-1.7-6.9-7.9-6.9-7.9,0,0-.8-.9-1.1-1.2,0,0,1.9-1.3,3.8-4,.1-.2,1.9-2.7,1.7-5.4-.2-2.9-2.2-4.8-2.6-5.2-.4-.4-2.6-2.4-9.5-2.4h-11.5c-.1,0-.2.1-.2.2v.3c0,.1,0,.2.2.2.8.1,3.4.6,3.4,2.8v23.5c0,2.1-2,2.6-2.6,2.7s-.2.1-.2.2v.3c0,.1.1.2.2.2h11.7c.1,0,.2-.1.2-.2v-.3c0-.1,0-.2-.2-.2-.8,0-3.5-.4-4-2.4s0-.5,0-.7v-8.3h2.5c2.3,0,3.2.6,3.5.8,1,.7,1.8,1.6,1.8,1.6l3.7,4.4c1.3,1.6,3.2,3.6,4.3,4.3.9.6,1.9,1.4,4.4,1.9,2,.4,5-.2,6.2-.7s.2-.2.1-.3v-.3ZM499.6,89h-3.2v-13.9c.5-.2,1.5-.4,2.9-.4,2.1,0,3.6.6,4.6,1.4,2.2,1.8,2.7,4.6,2.7,6.9s-1.1,3.8-2,4.5-2.2,1.4-5.2,1.4Z"></path>
      <path class="st0" d="M210.7,104.5c13.8,0,13.6-12.4,13.6-12.4v-15.5c0-2.3,2-2.7,2.7-2.8s.2-.1.2-.2v-.3c0-.1-.1-.2-.2-.2h-10.2c-.1,0-.2.1-.2.2v.3c0,.1,0,.2.2.2.8,0,3.5.4,3.5,2.8v17.1s0,5-3.5,7.1-6.1,1.7-6.1,1.7c0,0-3,0-6.1-1.7s-3.5-7.1-3.5-7.1v-17.1c0-2.4,2.4-2.7,3.1-2.8s.2-.1.2-.2v-.3c0-.1-.1-.2-.2-.2h-11.6c-.1,0-.2.1-.2.2v.3c0,.1,0,.2.2.2.8,0,3.5.4,3.5,2.8v15.5s-.4,12.4,14.6,12.4Z"></path>
      <path class="st0" d="M583.5,96.3c-1.8,3-4.7,5.1-6.7,5.8-2,.7-3.4,1.6-13,1.6h-12.7c-.1,0-.2-.1-.2-.2v-.3c0-.1,0-.2.2-.2.6-.1,2.6-.6,2.6-2.7v-23.5c0-2.2-2.7-2.7-3.4-2.8s-.2-.1-.2-.2v-.3c0-.1.1-.2.2-.2h13.5c9.4,0,13.2,1.4,17,4.6,3.9,3.2,4.9,7.4,5,9.5.1,2.9-.4,6.2-2.2,9.1ZM558.7,98.4c0,1.3.8,2.4,2,2.7,5.2,1.4,15.7.8,18.4-5.9s.3-14.7-5.4-17.9c-5.7-3.2-12.1-2.6-15.1-1.9v23.1Z"></path>
      <path class="st0" d="M97.7,88.3c-2.3-1.6-4.2-2-4.2-2,0,0,4.7-3.1,4.2-7.4-.3-2.8-2.4-4.2-4.2-5.1-1.8-.9-4.4-1.2-5.9-1.2-1.1,0-5.8.2-7.3.2s-2.2,0-3.3-.2-.3,0-.3.2v.5c0,0,0,.1,0,.2.3.3.8.4,1.9.6,1.7.2,1.6,1.6,1.6,1.6v24.4c0,2.1-2,2.7-2.6,2.8s-.2.1-.2.2v.3c0,.1.1.2.2.2h12.8c2,0,5.5-.6,7.9-3,2.4-2.4,2.6-4.3,2.7-5.9,0-1.7-.8-4.6-3.5-6.4ZM87.9,74.6c2.6.1,3.8,1.5,4.5,2.5,1,1.5,1.3,4.9-.5,6.7-1.7,1.7-3.9,1.8-6.5,1.8v-10.8c.3-.1,1.3-.4,2.5-.3ZM94.2,100.4c-1.1,1-2.7,1.5-4.1,1.5-.9,0-3-.4-4.3-1.8s-.5-.9-.5-1.4v-11c2.6,0,4.6.1,6.3,1.1,1.8,1,3.9,2.7,4.5,5.4.7,3.1-.8,5.2-1.9,6.2Z"></path>
      <path class="st0" d="M392.5,73.2v.3c0,.1,0,.2.2.2.8,0,3.8.5,2.9,2.5h0s-9.8,20.8-9.8,20.8l-9.4-20.8h0c-.9-2,1.1-2.4,1.8-2.5s.2-.1.2-.2v-.3c0-.1-.1-.2-.2-.2h-11.6c-.1,0-.2.1-.2.2v.3c0,.1,0,.2.2.2.8,0,3.4.5,4.7,3.3h0s12.7,27.4,12.7,27.4h1.4l13.3-27.4h0c1.4-2.8,3.5-3.2,4.1-3.3s.2-.1.2-.2v-.3c0-.1-.1-.2-.2-.2h-10c-.1,0-.2.1-.2.2Z"></path>
      <path class="st0" d="M455.2,99.7h0s-12.7-27.4-12.7-27.4h-1.4l-11.5,27.4h0c-1.4,2.8-3.5,3.2-4.1,3.3s-.2.1-.2.2v.3c0,.1.1.2.2.2h10c.1,0,.2-.1.2-.2v-.3c0-.1,0-.2-.2-.2-.8,0-3.8-.5-2.9-2.5h0s3.4-8.4,3.4-8.4h10.6l3.8,8.4h0c.9,2-1.1,2.4-1.8,2.5s-.2.1-.2.2v.3c0,.1.1.2.2.2h11.2c.1,0,.2-.1.2-.2v-.3c0-.1,0-.2-.2-.2-.8,0-3.4-.5-4.7-3.3ZM436.9,89.8l4.1-10.1,4.6,10.1h-8.7Z"></path>
    </g>
    <path class="st0" d="M623.5,139.6H37.2V37.1h586.3v102.5ZM38.2,138.6h584.3V38.1H38.2v100.5Z"></path>
  </g>
  <g>
    <path class="st0" d="M164.7,174.8h-2.5l-3.7,4.1c-.3.4-.7.8-1,1.1s-.6.7-.9,1.1c-.1.1-.2.3-.3.4v-2.5s0-4.2,0-4.2h-2v13.1h2v-4.1l1.8-2,4.2,6.1h2.4l-5.2-7.4,5.2-5.7Z"></path>
    <rect class="st0" x="174.1" y="174.8" width="2" height="13.1"></rect>
    <polygon class="st0" points="185.8 176.5 189.9 176.5 189.9 187.9 191.9 187.9 191.9 176.5 195.9 176.5 195.9 174.8 185.8 174.8 185.8 176.5"></polygon>
    <path class="st0" d="M208.5,177c.6-.4,1.3-.6,2.1-.6s.8,0,1.2.2.7.3,1,.5.6.5.8.8.4.7.4,1.1h2c-.1-.7-.3-1.3-.6-1.9s-.7-1-1.2-1.4-1-.7-1.6-.9-1.3-.3-2-.3c-1.1,0-2.2.3-3.1.8s-1.6,1.3-2.1,2.3-.8,2.2-.8,3.6.3,2.6.8,3.6,1.2,1.8,2.1,2.3,1.9.8,3.1.8,1.4-.1,2-.3,1.2-.5,1.6-.9.9-.9,1.2-1.4.5-1.1.6-1.8h-2c0,.4-.2.8-.4,1.1s-.5.6-.8.8-.6.4-1,.5-.8.2-1.2.2c-.8,0-1.5-.2-2.1-.6s-1.1-.9-1.4-1.7-.5-1.6-.5-2.7.2-1.9.5-2.7.8-1.3,1.4-1.7Z"></path>
    <polygon class="st0" points="234.2 180.3 227.7 180.3 227.7 174.8 225.7 174.8 225.7 187.9 227.7 187.9 227.7 182.1 234.2 182.1 234.2 187.9 236.2 187.9 236.2 174.8 234.2 174.8 234.2 180.3"></polygon>
    <polygon class="st0" points="248.6 182.1 254.5 182.1 254.5 180.4 248.6 180.4 248.6 176.5 254.9 176.5 254.9 174.8 246.6 174.8 246.6 187.9 255 187.9 255 186.2 248.6 186.2 248.6 182.1"></polygon>
    <path class="st0" d="M273.6,182.3c0,.3,0,.6,0,1s0,.9,0,1.4c0,.2,0,.5,0,.7-.1-.3-.2-.5-.4-.8-.2-.4-.4-.8-.6-1.2s-.4-.6-.5-.9l-4.9-7.8h-2.3v13.1h2v-7c0-.3,0-.6,0-1s0-.9,0-1.5c0-.3,0-.7,0-1.1.2.4.5.8.6,1.2.3.5.5.9.8,1.3s.4.7.7,1.1l4.4,7h2.3v-13.1h-2v7.5Z"></path>
    <path class="st0" d="M306.6,185.4c.3-.4.5-.9.7-1.4s.3-1.3.3-2h-1.7c0,.7-.1,1.3-.3,1.8,0,.2-.2.3-.2.5l-2.6-3.1.9-.7c.4-.3.7-.5.9-.8s.5-.6.6-1,.2-.7.2-1.1-.1-1-.4-1.5-.6-.8-1.1-1-1.1-.4-1.7-.4-1.3.1-1.7.4-.9.6-1.2,1.1-.4,1-.4,1.6.1,1,.3,1.4.5.9.8,1.3c0,.1.2.3.3.4-.5.4-.9.7-1.3,1.1-.4.4-.7.7-.9,1.1s-.3.9-.3,1.4.2,1.3.5,1.9.8,1,1.5,1.3,1.4.5,2.3.5,1.3-.1,1.9-.3c.6-.2,1.1-.5,1.5-.9l.9,1h2.2l-1.9-2.3c0,0,.1-.1.2-.2ZM300.7,177c.1-.2.3-.4.5-.5s.5-.2.8-.2c.4,0,.8.1,1.1.4s.4.6.4.9,0,.5-.2.7-.2.4-.4.5-.3.3-.5.4l-.8.6c0-.1-.2-.2-.3-.3-.3-.3-.5-.6-.6-.9s-.2-.6-.2-.9,0-.6.2-.8ZM303.3,186.1c-.5.2-1,.3-1.5.3s-.8,0-1.2-.3-.6-.4-.8-.7-.3-.7-.3-1,.1-.7.3-1,.6-.6,1-1l.3-.3,2.9,3.4c-.3.2-.5.4-.8.6Z"></path>
    <path class="st0" d="M338.1,175.4c-.9-.5-1.9-.8-3-.8s-2.2.3-3.1.8-1.6,1.3-2.1,2.3-.8,2.2-.8,3.6.3,2.6.8,3.6,1.2,1.8,2.1,2.3,1.9.8,3.1.8,2.2-.3,3-.8,1.6-1.3,2.1-2.3.8-2.2.8-3.6-.3-2.6-.8-3.6-1.2-1.8-2.1-2.3ZM338.5,184c-.3.7-.8,1.3-1.4,1.7s-1.3.6-2,.6-1.4-.2-2-.6-1.1-.9-1.4-1.7-.5-1.6-.5-2.7.2-2,.5-2.7.8-1.3,1.4-1.7,1.3-.6,2-.6,1.4.2,2,.6,1.1.9,1.4,1.7.5,1.6.5,2.7-.2,1.9-.5,2.7Z"></path>
    <path class="st0" d="M356,179c-.3.4-.5.9-.7,1.3-.1.2-.2.5-.3.7-.1-.3-.2-.5-.3-.7-.2-.4-.5-.8-.7-1.3l-2.5-4.2h-2.3l4.8,7.9v5.2h2v-5.2l4.8-7.9h-2.3l-2.4,4.2Z"></path>
    <path class="st0" d="M378.2,181.7c-.4-.3-.8-.5-1.2-.7s-.9-.3-1.4-.5l-1.3-.3c-.4-.1-.8-.2-1.1-.4s-.7-.4-.9-.6-.4-.6-.4-1,.1-.7.3-1,.5-.5.9-.7.9-.3,1.4-.3c.8,0,1.4.2,1.9.5s.8.8.8,1.5h1.9c0-.7-.2-1.4-.6-1.9s-.9-1-1.6-1.3-1.5-.5-2.4-.5-1.7.2-2.4.5-1.3.8-1.7,1.3-.6,1.2-.6,2,.3,1.6.9,2.2,1.5,1,2.6,1.3l1.5.4c.5.1.9.3,1.3.4s.7.4.9.6.3.6.3.9-.1.8-.4,1.1-.6.6-1,.7-.9.3-1.5.3-1,0-1.5-.3-.8-.4-1-.8-.4-.7-.4-1.2h-2c0,.8.3,1.5.7,2.1s1,1.1,1.7,1.4,1.6.5,2.6.5,1.9-.2,2.6-.5,1.3-.8,1.7-1.4.6-1.2.6-2-.1-1-.3-1.5-.5-.8-.9-1Z"></path>
    <polygon class="st0" points="388.4 176.5 392.5 176.5 392.5 187.9 394.5 187.9 394.5 176.5 398.6 176.5 398.6 174.8 388.4 174.8 388.4 176.5"></polygon>
    <polygon class="st0" points="410.3 182.1 416.2 182.1 416.2 180.4 410.3 180.4 410.3 176.5 416.6 176.5 416.6 174.8 408.3 174.8 408.3 187.9 416.7 187.9 416.7 186.2 410.3 186.2 410.3 182.1"></polygon>
    <path class="st0" d="M433.8,182.4c.7-.3,1.2-.8,1.5-1.4s.5-1.3.5-2.1-.2-1.5-.5-2.1-.9-1.1-1.5-1.4-1.5-.5-2.5-.5h-4.8v13.1h2v-4.9h2.7s0,0,.1,0l2.6,5h2.3l-2.9-5.3c.1,0,.3,0,.4-.2ZM428.6,176.5h2.6c.6,0,1.1,0,1.6.3s.7.5.9.8.3.8.3,1.3,0,.9-.3,1.3-.5.6-.9.8-.9.3-1.5.3h-2.6v-4.7Z"></path>
    <path class="st0" d="M466.1,181.6c-.4-.3-.8-.4-1.3-.4h0c.4-.2.8-.4,1.1-.6s.6-.5.8-.9.3-.8.3-1.4-.2-1.2-.5-1.8-.8-.9-1.4-1.2-1.4-.5-2.3-.5h-4.8v13.1h5c1,0,1.9-.2,2.5-.5s1.1-.7,1.5-1.3.5-1.1.5-1.8-.1-1.2-.4-1.7-.6-.8-1-1.1ZM460,176.5h2.7c.8,0,1.3.2,1.7.5s.6.8.6,1.4-.1.8-.3,1.1-.5.5-.8.7-.8.3-1.2.3h-2.7v-4ZM464.9,185.6c-.4.4-1.1.5-2,.5h-2.9v-4.2h2.9c.5,0,1,0,1.4.3s.7.5.9.8.3.7.3,1.1-.2,1-.6,1.4Z"></path>
    <path class="st0" d="M481,174.8l-4.7,13.1h2.2l1.2-3.4h5.2l1.2,3.4h2.2l-4.7-13.1h-2.4ZM484.3,182.8h-4l.8-2.2c.2-.6.4-1.3.6-2.1.2-.6.4-1.3.6-2.1.2.8.4,1.5.6,2.1.2.8.5,1.5.7,2.1l.8,2.2Z"></path>
    <path class="st0" d="M507.3,187.9l-2.9-5.3c.1,0,.3,0,.4-.2.7-.3,1.2-.8,1.5-1.4s.5-1.3.5-2.1-.2-1.5-.5-2.1-.9-1.1-1.5-1.4-1.5-.5-2.5-.5h-4.8v13.1h2v-4.9h2.7s0,0,.1,0l2.6,5h2.3ZM499.5,176.5h2.6c.6,0,1.1,0,1.6.3s.7.5.9.8.3.8.3,1.3,0,.9-.3,1.3-.5.6-.9.8-.9.3-1.5.3h-2.6v-4.7Z"></path>
  </g>
</svg>
